<svg width="374" height="340" viewBox="0 0 374 340" fill="none" xmlns="http://www.w3.org/2000/svg">
<path d="M371 270L370.994 270.904C370.514 308.846 339.846 339.514 301.904 339.994L301 340H70L69.0957 339.994C31.1535 339.514 0.486223 308.846 0.00585938 270.904L0 270V242H15V270C15 300.376 39.6243 325 70 325H301C331.376 325 356 300.376 356 270V166L371 141V270ZM301 0C339.66 0 371 31.3401 371 70V104.001L356 104V70C356 39.6243 331.376 15 301 15H70C39.8617 15 15.3855 39.2411 15.0049 69.2891L15 70V189.5L0 221.5V70C3.22172e-06 31.3401 31.3401 5.63728e-07 70 0H301Z" fill="black"/>
<path d="M9.56 228L59.48 116H85.08L135.16 228H107.96L67 129.12H77.24L36.12 228H9.56ZM34.52 204L41.4 184.32H99L106.04 204H34.52ZM146.78 228V116H168.22L234.3 196.64H223.9V116H249.5V228H228.22L161.98 147.36H172.38V228H146.78ZM303.839 228V182.24L309.759 197.92L260.479 116H287.999L325.759 178.88H309.919L347.839 116H373.279L323.999 197.92L329.759 182.24V228H303.839Z" fill="#1A7DFF"/>
</svg>
